<?xml version="1.0" standalone="no"?>
<!DOCTYPE svg PUBLIC "-//W3C//DTD SVG 20010904//EN"
 "http://www.w3.org/TR/2001/REC-SVG-20010904/DTD/svg10.dtd">
<svg version="1.0" xmlns="http://www.w3.org/2000/svg"
 width="96.000000pt" height="96.000000pt" viewBox="0 0 96.000000 96.000000"
 preserveAspectRatio="xMidYMid meet">
<metadata>
Created by potrace 1.11, written by Peter Selinger 2001-2013
</metadata>
<g transform="translate(0.000000,96.000000) scale(0.100000,-0.100000)"
fill="#000000" stroke="none">
<path d="M345 946 c-160 -53 -274 -163 -325 -316 -18 -54 -21 -82 -18 -170 3
-97 6 -111 40 -183 129 -270 461 -361 710 -194 74 49 146 140 178 224 28 73
38 203 20 282 -31 141 -131 264 -267 329 -74 35 -84 37 -188 39 -71 2 -124 -2
-150 -11z m-71 -312 c117 -47 223 -135 213 -175 -4 -13 9 -7 41 22 26 23 76
56 112 74 73 36 198 80 207 72 6 -7 -60 -210 -94 -287 -38 -87 -87 -130 -164
-144 -49 -9 -97 11 -120 48 -10 17 -19 25 -19 17 0 -10 -14 -12 -59 -9 -111 8
-151 58 -230 290 l-50 146 52 -15 c29 -8 79 -26 111 -39z"/>
<path d="M170 632 c0 -5 28 -40 61 -78 34 -38 87 -107 119 -154 57 -85 100
-133 100 -112 0 15 -96 169 -137 219 -40 48 -143 139 -143 125z"/>
<path d="M714 512 c-51 -50 -101 -112 -141 -177 -33 -55 -59 -102 -57 -104 8
-9 57 46 109 124 30 44 81 111 114 149 54 61 70 86 57 86 -2 0 -39 -35 -82
-78z"/>
<path d="M454 395 c-7 -19 -14 -45 -13 -57 1 -15 4 -9 10 15 5 21 14 47 19 58
6 10 8 19 5 19 -3 0 -13 -16 -21 -35z"/>
</g>
</svg>
