<svg xmlns="http://www.w3.org/2000/svg" width="133" height="127" viewBox="0 0 132.7 127.2"><style>.a{stop-color:#0F80BC;}.b{stop-color:#0A5F9E;}.c{stop-color:#00145A;}.d{stop-color:#DF731B;}.e{stop-color:#F79A09;}.f{stop-color:#941403;}.g{stop-color:#E85C0A;}.h{stop-color:#FFC;}.i{stop-color:#B30000;}.j{stop-color:#DE5C01;}.k{stop-color:#DE7210;}.l{stop-color:#F6C08F;}.m{stop-color:#F9BD5F;}.n{stop-color:#FFFCCF;}.o{stop-color:#F2C06E;}.p{stop-color:#F2C072;}.q{stop-color:#EED8A5;}.r{stop-color:#FEFD00;}.s{stop-color:#FEFE26;}.t{stop-color:#FFFE54;}.u{stop-color:#FFFF76;}.v{stop-color:#FFFF8B;}.w{stop-color:#FFFF92;}</style><title>  Firefox Logo</title><desc>  Firefox logo in SVG, authored by Jon Hicks, made in Adobe Illustrator  (file format cleaned up and slightly modified by Doug Schepers)</desc><ellipse cx="63.8" cy="59.4" rx="59.3" ry="59.4" fill="#110070"/><radialGradient cx="64.6" cy="7.2" r="104.2" fx="64.5688" fy="7.2266" gradientUnits="userSpaceOnUse"><stop offset="0" stop-color="#67C5D5"/><stop offset="0.1604" stop-color="#66C2D3"/><stop offset="0.2795" stop-color="#62B9CE"/><stop offset="0.3852" stop-color="#5CA8C6"/><stop offset="0.4832" stop-color="#5392BA"/><stop offset="0.5759" stop-color="#4874AA"/><stop offset="0.6646" stop-color="#3A5097"/><stop offset="0.7485" stop-color="#2A2781"/><stop offset="0.8146" stop-color="#1B006D"/><stop offset="1" stop-color="#596AAD"/></radialGradient><ellipse cx="63.8" cy="59.4" rx="58.2" ry="58.3" fill="url(#XMLID_61_)"/><radialGradient cx="64.6" cy="14.2" r="52.2" fx="64.5518" fy="14.1748" gradientUnits="userSpaceOnUse"><stop offset="0" class="a"/><stop offset="0.3376" class="b"/><stop offset="1" class="c"/></radialGradient><path d="M55.4 89.4c-0.1-0.3-0.9-1.2-1.5-1.4 -0.6-0.2-1.2 0.9-1.6-0.9 -1.3 0.7-1.8-0.2-1.8-0.2s-1.4 0.1-1.6 1.8c-0.6 0.8-2.3 3.6-1.4 0.7 0.9-2.9-0.9-0.2-1.1 1.2 -0.3 0.7-0.9 0.7-0.5-2.2 -1.2-0.4-1.8-3.1-1.1-3.2 -0.7-1-0.2-2.6 0.5-2.5 0.6 0.1 1.7-1.4 1.7-1.7 0-0.3 0.5-0.1 0.5-2.3 0-2.2 0.8-2.8 0.9-0.9 0.1 1.9 1.2-0.6 1.1-1.6 -0.1-0.9 0.1-3.1 0.8-1.8 -0.8-3.1-0.2-3.3 0.3-1.2 1.2 0.1 1.2 0.7 1.2 0.7 1.3-0.3 2 0.7 2.1 1.2 1.2-1.4 2.5 0.1 2.5 0.1s0.9-0.3 0.4 1.2c-0.4 1.5 1.8 0.7 1.3-0.4 1.1-0.5 2.7 1.1 3.2 2.2 0.5 1.1-0.9 2.7 0.2 3.1 1.1 0.4 0.6 2.2 0.6 2.2s2.2 1.2 0.7 2.3l-0.5 1.3c0 0 1 1.1 1.4 0.5 0.3-0.7 0.5 0.7 0.5 0.7 -0.1-0.2 0.2 1.4 1.6 1.7 1.4 0.3 2.3 2.6 0.7 2.6 -1.5 0-1.7 0-2.1 0.9 -0.4 0.9-2.4 0.9-3.4-0.2 -1.1 0.4-3-0.1-2.5-1 -0.9 0.5-1.8-0.9-1.1-1.6 0.7-0.7-0.4-1.5-0.8-0.6 -0.4 0.9-2.4 1.4-2.3-0.2 0-0.5 1.1-0.7 1.1-0.4C55.4 90 55.5 89.5 55.4 89.4z" fill="url(#XMLID_62_)"/><radialGradient cx="64.6" cy="14.2" r="52.2" fx="64.5537" fy="14.1758" gradientUnits="userSpaceOnUse"><stop offset="0" class="a"/><stop offset="0.3376" class="b"/><stop offset="1" class="c"/></radialGradient><path d="M103.5 43.9c0.3 0.3 0.9 0.2 1.3 0.1 0.3-0.1 0.3-0.3 0.6-0.4 0.3-0.1 1.4 0.4 1.1 1.6 -0.7 0.1-0.9 0.9-0.9 0.9s-0.7 0.3-1 0.1c-0.3-0.1-0.3-0.1-0.8 0 -0.5 0.1-1.6-0.6-0.4-0.6 1.3 0-0.1-0.6-0.7-0.6 -0.5 0-0.1-0.5 0.5-0.4C102.8 43.9 103 43.4 103.5 43.9z" fill="url(#XMLID_63_)"/><radialGradient cx="64.5" cy="14.2" r="52.2" fx="64.5488" fy="14.1724" gradientUnits="userSpaceOnUse"><stop offset="0" class="a"/><stop offset="0.3376" class="b"/><stop offset="1" class="c"/></radialGradient><path d="M99.2 46.5c-0.3 0.3 0 1.3 0.5 1.3 0.4 0 1.1-0.2 1.1-0.2s0.3 0.7 0 0.9c-0.3 0.2-1.3 0.1 0 0.6 1.3 0.5 1.6 0.3 1.7 0.1 0.1-0.2 0.5-1.1 0.8-1 0.2-0.4-0.7-0.8-0.2-1.1 0.5-0.3 0.1-1.3 0.1-1.3s-0.7 0-1 0.5c-0.3 0.5-0.7 0-1 0 0 0.3-0.2 0.5-0.2 0.5l-0.2-0.4C100.8 46.2 99.4 46.2 99.2 46.5z" fill="url(#XMLID_64_)"/><radialGradient cx="65.4" cy="19.1" r="57.4" fx="65.4053" fy="19.1201" gradientUnits="userSpaceOnUse"><stop offset="0" class="a"/><stop offset="0.2643" stop-color="#0B629B"/><stop offset="0.8439" stop-color="#031747"/><stop offset="1" stop-color="#00022F"/></radialGradient><path d="M90.2 47.3c0-0.1 0.4-0.6 0.3 0 -0.3 0.5 1.1 0.9 1.4 0.4 1.2-1.7-1.2-2.5-2.2-1.7 -1.1 0.8-1.6-0.9-0.4-1.2 1.2-0.2 1.3-2.4 0-2.4 1.2-0.6-0.5-2.3-1.8-2.6 -0.2-1.9-2.2-3.1-3.2-2.4 -1 0.7-1.1 0.6-2.7-0.4 -1.5-0.9-2.3 1.9-1.1 3.2 1.1 1.3 0.3 3.3 0.4 2.9 0 0-0.4 0.8-0.4 1.1 -1.3 0.4-1.7-1.4-2.5-1.8 -0.6 0.8-1.5 1.2-1.5 1.2l0.1-1.6c0 0-4-2.2-5.3-1.6 -1.5 0.5-1.9 4-0.5 4.5 1.4 0.5-1.7 1.8 1.4 5.1 3.2 3.4 4.5 3.5 5.1 2.9 0.2-0.1 0.4-0.3 0.8-0.6 0 0.1 0.1 0.3 0.2 0.4 0.8 1.2-1.9 2.2-2.2 3.9 -0.4 1.8 0 5 1.6 5.1 0.3-1.7 3.3-1.1 1.7 0.5 -1.6 1.6-0.5 1.9-0.5 1.9s0.1 3 2.6 2c-0.1 0.2-0.1 0.4-0.2 0.6 -0.7-0.1-2.4-0.4-2.8 0.8 -0.5 1.5-2.8-0.5-4.3 0.2 -1.6 0.7-3.8 2.9-3.1 4.4 1.5-0.7 2.6 2.5 0.5 1.8 -2.1-0.6-1.7 0.6-1.7 0.6s-2.2 1.7-0.1 3.5c-0.8 0.1-2.2 1-1.7 2.9 0 0-0.9 0-1 1.7 -2.9 0.6-2.7 1.5 1.6 0.5 -1.8 0.9 1.2 1.3 2.5 1.2 1.3-0.1 4.8 1.6 2.2 1.6 -2.6 0-1.8 1.3 1.3 1.4 3.1 0.1 2.8 0.8 3.3 0.8 0.5 0 2.5 1.6 2.4 2.4 -0.1 0.9 2.1 1.8 3.6 0.8 0.1 0.9 3.9 0.2 4.5-1.5 4.1 0.6 4-0.1 3.1-0.6 -2.1-0.3-5.9-3.1-1.7-1.6 4.1 1.4 0.2-1.1-0.9-2.1 -2.3-0.5-2.5-2.4-2.5-2.4s1.3-0.7 0.3-2.6c2.5-0.5 1-1.4 1.3-2.2 0.3-0.9 1.6-1.9 2-2 0.1-0.1 0.8 0 0.1 0.3 -0.6 0-0.2 1.6 0.5 1.6 2.2 0.3 1.6-2.7 0.3-3.2 -1.3-0.6-0.1-2.2 0.8-1.1 0.9 1.1 3-0.1 2.2-1.5 1.2 0.9 1.9-1.9 1.4-3.5 1.6-1.4 1.6-4.3 0.3-4.9 -0.6-0.3-0.9-0.5-1.1-0.9 0.8-0.4 1.8-0.6 2.2-0.3 0.6 0.6 2.4-1 2.3-2.9 0.8 0.4 1.9-3.4 0.9-4.7 2.3-3.3 1.7-3.5 0.9-3 -1.2 1.6-5 3.6-2 0.7 2.9-2.8-0.8-0.7-2-0.2 -1.4 1.8-3 0.9-3 0.9s0.1-1.5-1.8-1.5c0.9-2.4-0.5-1.5-1-2.2C90.2 49.3 90 47.7 90.2 47.3z" fill="url(#XMLID_65_)"/><radialGradient cx="64.6" cy="14.2" r="52.2" fx="64.5508" fy="14.1733" gradientUnits="userSpaceOnUse"><stop offset="0" class="a"/><stop offset="0.3376" class="b"/><stop offset="1" class="c"/></radialGradient><path d="M60 23.5c-0.4 0.9 1.2 2.5 2 2 0.8-0.5 1.9-1.5 1.9-1.5s1.2 0.9 0.7 1.6c-0.5 0.7-2.4 1.4 0.4 1.1 2.8-0.3 3.3-0.9 3.3-1.4 0-0.5 0.1-2.5 0.6-2.6 0-1-1.9-0.9-1.3-1.9 0.7-1-0.9-2.6-0.9-2.6s-1.2 0.7-1.4 1.9c-0.2 1.2-1.3 0.5-1.8 0.8 0.1 0.6 0 1.2 0 1.2l-0.7-0.6C62.8 21.5 60.2 22.7 60 23.5z" fill="url(#XMLID_66_)"/><radialGradient cx="64.6" cy="14.2" r="52.2" fx="64.5518" fy="14.1646" gradientUnits="userSpaceOnUse"><stop offset="0" class="a"/><stop offset="0.3376" class="b"/><stop offset="1" class="c"/></radialGradient><path d="M64.6 73c-0.3 0.3 0.1 1.3 0.5 1.3 0.4 0 1.1-0.2 1.1-0.2s0.3 0.7 0 0.9c-0.3 0.2-1.3 0.1 0 0.6 1.3 0.5 1.6 0.3 1.7 0.1 0.1-0.2 0.5-1.1 0.8-1 0.2-0.4-0.7-0.8-0.2-1.1 0.5-0.3 0.1-1.3 0.1-1.3s-0.7 0-1 0.5c-0.3 0.5-0.7 0-1 0 0 0.3-0.2 0.5-0.2 0.5l-0.2-0.4C66.2 72.7 64.9 72.6 64.6 73z" fill="url(#XMLID_67_)"/><defs><ellipse cx="63.8" cy="59.4" rx="58.2" ry="58.3"/></defs><clipPath><use xlink:href="#XMLID_8_"/></clipPath><linearGradient gradientUnits="userSpaceOnUse" x1="76.4" y1="16.6" x2="93.2" y2="18"><stop offset="0" class="a"/><stop offset="0.3376" class="b"/><stop offset="1" class="c"/></linearGradient><path d="M65.1 1c-0.9 0.2 0.6 3.5 0.6 3.5s-0.1 2.2 0.3 2.3c0.4 0.1 2.9 0.7 4.1 2.3 1.3 1.6 0.6 2.5-0.5 2 -1.1-0.5-0.8 1-0.8 1s3.3 1.1 0.8 1c-2.5-0.1 1.7 1.7 1.4 1.9 -0.3 0.2-0.4 1.2-0.4 1.2s-2.2 0.2-0.3 1c6.3 2.6-0.7 1.9-0.7 1.9l-0.9 1.1 1.7 2.2 1.3 1c0 0 2.8-0.9 3.7-1.1 0.9-0.1 3.1-1.8 3.1-1.8s0.7 0.5 0.2-0.5c-0.5-1 1.8-0.5 2.4 0.2l4.1 1.9c0.1 0.1 0.1 0.3 0.3 0.4 0.8 0.6-0.7 1.5-0.6 2.6 0.2 1 1.1 2.7 2.1 2.5 -0.2-1 1.9-1.1 1.1 0 -0.7 1.1 0.1 1.1 0.1 1.1s0.7 1.5 2 0.7c-0.1 0.5 0.2 1.4 1.4 1.5 0 0-0.1 0.5 0.8 0.9 -0.1 1.7 0.4 1.8 0.6-0.8 0.2 1.2 1-0.5 1.1-1.2 0.2-0.8 1.8-2.5 1.3-1 -0.4 1.5 4.7 2.1 5.3 0.3 0.6-1.8 2.6-2.8 2.7-3 0.1-0.3-4.6-0.7-4.1-0.5 0.5 0.2 1.5-0.9 1.1-2 0.6 0.1 0.8-2.3-0.1-2.9 1.1-2.4 0.7-2.5 0.2-2 -0.6 1.2-2.9 3-1.3 0.8 1.6-2.3-0.7-0.3-1.4 0.2 -0.7 1.3-1.9 1.1-1.9 1.1s-0.2-0.9-1.5-0.6c0.2-1.6-0.7-0.8-1.1-1.2 -0.3-0.2-0.6-0.6-0.7-1 1.1 0.5 2.6 0.9 2.4 0.1 -0.2-0.5 2.1 0.6 2.2 0.4l2.8-0.4 2.8-1.7C85.4 0.2 65.1 1 65.1 1z" style="clip-path:url(#XMLID_68_);fill:url(#XMLID_69_)"/><linearGradient gradientUnits="userSpaceOnUse" x1="38.5" y1="19.1" x2="29.2" y2="32.8"><stop offset="0" class="a"/><stop offset="0.3376" class="b"/><stop offset="1" class="c"/></linearGradient><path d="M38.8 6.1c-10.6 4.7-18.6 14.5-18.6 14.5s0.9 2.1 1.3 2c0.3-0.2-2.4 5.6-0.4 6 2 0.3 7.7-3.6 6.6-3.2 -1.1 0.4 0.6-2.1 0.6-2.1s3-1.3 1.2 0.2c-1.7 1.5 2.3 0.2 2.3 0.5 -0.1 0.3 0.5 1.1 0.5 1.1s-1.4 1.5 0.4 0.9c6.2-2.1 0.8 1.8 0.8 1.8l0.1 1.3 2.7 0.5 1.6-0.1c0 0 1.4-2.4 1.9-3.1 0.5-0.7 1-3.3 1-3.3s0.8-0.1-0.2-0.5c-1-0.4 1-1.6 1.9-1.4l4.3-1.3c0.1 0.1 0.3 0.1 0.5 0.1 1-0.1 0.5 1.6 1.3 2.3 0.8 0.6 2.6 1.3 3.3 0.5 -0.8-0.6 0.7-2 0.9-0.8 0.2 1.2 0.8 0.7 0.8 0.7s1.5-2.7 2-4.2c0.3 0.4 2.8-3.3 2-5.1 -0.8-1.8 0.5-3.5 0.3-3.7 -0.1-0.3-0.9 0.5-0.3 0.3 0.6-0.2-1.6 0.8-1.9-2.1 -0.3-2.9-0.7 0.2-1 1.2 0.4 1.5 4.3-6.1 4.3-6.1l5-2.1C64 0.9 52.5-0.1 38.8 6.1z" style="clip-path:url(#XMLID_68_);fill:url(#XMLID_70_)"/><linearGradient gradientUnits="userSpaceOnUse" x1="62.7" y1="34.5" x2="62.7" y2="11.9"><stop offset="0.0137" style="stop-color:#000;stop-opacity:0"/><stop offset="0.65" style="stop-color:#C4E0E3;stop-opacity:0.2"/><stop offset="0.8224" stop-color="#C4E0E3"/><stop offset="0.8498" stop-color="#CDE5E8"/><stop offset="0.9443" stop-color="#E8F4F7"/><stop offset="1" stop-color="#F2FAFC"/></linearGradient><ellipse cx="62.7" cy="23.3" rx="30.8" ry="20" style="fill:url(#XMLID_71_);opacity:0.5"/><filter x="-25" y="-25" width="150" height="150"><feGaussianBlur in="SourceAlpha" stdDeviation="1.5" result="blur"/><feOffset dx="1" dy="1" in="blur" result="shift"/><feMerge><feMergeNode in="shift"/><feMergeNode in="SourceGraphic"/></feMerge></filter><g filter="url(#blurshadow)"><linearGradient gradientUnits="userSpaceOnUse" x1="64.5" y1="56.3" x2="78.5" y2="48.1"><stop offset="0" class="d"/><stop offset="0.5449" class="d"/><stop offset="0.7014" stop-color="#EC8811"/><stop offset="0.8593" stop-color="#F4950B"/><stop offset="1" class="e"/></linearGradient><path d="M125.3 43.1l-1.4 9.2c0 0-2-16.9-4.5-23.3 -3.8-9.7-5.5-9.6-5.5-9.6 2.6 6.5 2.1 10 2.1 10s-4.5-12.4-16.6-16.3c-14.2-4.7-21.5-3-21.4-2.9 0.1 0.1 14.7 2.6 17.3 6.1 0 0-6.2 0-12.4 1.8 -0.3 0.1 22.8 2.9 27.5 25.9 0 0-2.5-5.3-5.7-6.2 2.1 6.3 1.5 18.1-0.4 24 -0.3 0.8-0.5-3.3-4.4-5 1.2 8.9-0.1 22.9-6.2 26.8 -0.5 0.3 3.9-13.9 0.9-8.4 -17.8 27.3-39 11-47.5 5.2 6.9 1.7 14.2 0.5 18.4-2.4 4.3-2.9 6.8-5.1 9.1-4.6 2.3 0.5 3.8-1.8 2-3.8 -1.8-2-6.1-4.8-11.8-3.3 -4.1 1.1-9.2 5.6-16.9 1 -6.6-3.9-6.6-7.1-6.6-9.1 0-2 1.8-5.1 5.1-4.6 2.9 0.5 1.4-1.3 4.5 0 0.9 0.3-0.1-4.1-1.3-7 2.4-4.9 10-6.4 10.6-6.8 1-0.8 0.5-1.2 0.8-2.3 0.3-1.1 0.5-4.1-8-3.2 -3.9 0.4-6.4-4.7-7.3-6 0.3-1.6 0.7-3 1.3-4.3 0.6-1.2 1.2-2.3 1.9-3.1 0.2-0.3 0.4-0.5 0.5-0.7 1.3-1.5 2.8-2.8 4.7-3.8 1-0.6-11 0-16.3 7 -1.4 0.2-3.4-0.2-5.6-0.2 -2.8 0-5 0.3-7 0.8 -0.3 0.1-0.8 0-1.5-0.1 -1.8-1.8-6.8-6.3-7-12.3 0 0-7.3 5.6-6.2 20.9 -0.1 8.5-2.6 6-3.9 10.6 -0.6 2.2 0.9 3.8 0.9 3.9 0 0 1.8-1.9 1.8-1.9s-11.3 19.6 3.3 44.7c12.6 21.6 33.8 31.1 55.7 29.3 3.8-0.2 7.7-0.8 11.6-1.8C130.9 104.8 125.3 43.1 125.3 43.1z" fill="url(#XMLID_74_)"/><linearGradient gradientUnits="userSpaceOnUse" x1="41.8" y1="37" x2="52.7" y2="37.9"><stop offset="0.0112" class="f"/><stop offset="0.8972" class="g"/></linearGradient><path d="M45.5 27.6c0 0 2.2 6 7.2 6 9.5 0 9.6 0.1 9.7 1.2 0.2 3.5-1.5 4.6-2.2 5.1 -0.7 0.5-9.7 5.7-10 7.2C49.8 48.7 39.8 33 39.8 33L45.5 27.6z" fill="url(#XMLID_75_)"/><linearGradient gradientUnits="userSpaceOnUse" x1="24.5" y1="34" x2="63.6" y2="38.9"><stop offset="0.0112" class="f"/><stop offset="0.1357" stop-color="#A32104"/><stop offset="0.4978" stop-color="#C84107"/><stop offset="0.7893" stop-color="#DF5509"/><stop offset="0.972" class="g"/></linearGradient><path d="M50.5 34.1c0 0 3.1 3.9 0.7 5.5 -2.8 1.9 4 2.3 6.5 0.9s4-3.4 4.1-3.7 0.9-3.1-4.3-2.1C54.3 35.3 53.1 35.5 50.5 34.1z" fill="url(#XMLID_76_)"/><linearGradient gradientUnits="userSpaceOnUse" x1="48.7" y1="44.3" x2="51.9" y2="42.9"><stop offset="0" stop-color="#F2C8A9"/><stop offset="1" class="h"/></linearGradient><path d="M60.1 40c0.5-0.4 1.6-1.1 2-3 -0.3 0.1-0.3-0.2-0.7-0.1 -7 7.3-7.2 2.2-11 3.2 -3.5 0.9-4.2 2.2-4.4 2.3 0.1 0.1 0.1 0.1 0.2 0.2 1 0.5 2 2.1 2.7 3.6 0.7 0.8 1.2 1.2 1.2 0.9C50.5 45.7 59.5 40.5 60.1 40z" fill="url(#XMLID_77_)"/><linearGradient gradientUnits="userSpaceOnUse" x1="38.8" y1="82.6" x2="91.3" y2="84.7"><stop offset="0" class="i"/><stop offset="1" class="d"/></linearGradient><path d="M8.2 45.8C6.8 48.8-2.4 64.2 12.5 89.8c14.6 25.1 39.7 33.3 65.5 27.7 7.3-1.6 15.8-7.3 21.2-11.5 -3.5-8.7-1.4-8.4-3.3-7.3 -20.7 12.8-37.2 0.2-49.9-1.4C-0.9 91.3 8.3 45.7 8.3 45.7L8.2 45.8z" fill="url(#XMLID_78_)"/><linearGradient gradientUnits="userSpaceOnUse" x1="51.3" y1="74.4" x2="78.7" y2="84.2"><stop offset="0" class="f"/><stop offset="1" class="d"/></linearGradient><path d="M47.2 80.9c4.4 1.3 14.1 0.2 18.2-2.9 2.8-2.1 4.9-3.6 6.7-4.3 -3.1-2.1-3.2 0.9-9.8 2.4 -13.7 3.2-20.4-3.7-20.4-3.7 1 5.4 4.4 8.1 5.9 9C47.4 81.1 47.2 80.9 47.2 80.9z" fill="url(#XMLID_79_)"/><linearGradient gradientUnits="userSpaceOnUse" x1="6.1" y1="87.1" x2="32.8" y2="87.1" gradientTransform="matrix(0.9988 0.049 -0.049 0.9988 4.7153 -1.2399)"><stop offset="0.0562" class="i"/><stop offset="1" class="j"/></linearGradient><path d="M32.3 105.8c0 0-11.4-12.9-14.6-27.3 -4.7-4.4-8-8.2-10.3-10.9C8.7 77.8 14 93.8 32.3 105.8z" fill="url(#XMLID_80_)"/><linearGradient gradientUnits="userSpaceOnUse" x1="209.7" y1="-130.7" x2="224.3" y2="-85.6" gradientTransform="matrix(0.9929 0.1186 -0.1186 0.9929 -207.2682 181.2932)"><stop offset="0.0562" class="k"/><stop offset="1" class="l"/></linearGradient><path d="M22.8 94.1c0 0-7.9-11.2-4.9-20.8 2.7-8.6-0.6-3.5-2.4-1.6 -1.9 1.9-2.9-5.5-2.8-6.3 0 0 0 0 0 0C12.5 65.3 8.9 82.9 22.8 94.1z" fill="url(#XMLID_81_)"/><linearGradient gradientUnits="userSpaceOnUse" x1="12.5" y1="61.1" x2="12.5" y2="111.5" gradientTransform="matrix(0.999 0.0448 -0.0448 0.999 3.2321 -0.6968)"><stop offset="0.0562" class="k"/><stop offset="1" class="l"/></linearGradient><path d="M11.1 84.3c0 0-1.8-22.8 3.9-26 9-5.1 0.8-3.9-1.9-2.5 -2.6 1.4-2.4-8-2-8.9C11.5 46 1.8 55.8 11.1 84.3z" fill="url(#XMLID_82_)"/><path d="M50.6 17.2c0 0-7.1 7.3-7.1 7.3 0.1 0 0.2 9.3 0.4 11.9 0.9 1 3.5 7.6 1.5 6.1 -2.1-1.5-0.6-1.5-0.4-0.8 0 0 0 0 0 0C44.9 41.9 39.8 30.9 50.6 17.2z" fill="#A40000"/><linearGradient gradientUnits="userSpaceOnUse" x1="18.3" y1="30.8" x2="12.9" y2="16.8"><stop offset="0.0112" class="f"/><stop offset="0.4719" class="g"/><stop offset="1" class="m"/></linearGradient><path d="M16.6 11.6c0 0-7.6 5.8-6.1 21.8 5.9-5.3 14.2-9.2 14.2-9.2C23.3 23.4 16.9 18.2 16.6 11.6z" fill="url(#XMLID_83_)"/><linearGradient gradientUnits="userSpaceOnUse" x1="41.7" y1="34.1" x2="54.8" y2="16.9"><stop offset="0.1966" class="k"/><stop offset="0.8427" class="m"/><stop offset="1" class="n"/></linearGradient><path d="M35.3 29.1l11.4 14.2c-3.3-13.9-0.8-22.3 7.3-26.8C55.3 15.8 37.1 16.7 35.3 29.1z" fill="url(#XMLID_84_)"/><linearGradient gradientUnits="userSpaceOnUse" x1="34.8" y1="57.5" x2="48.1" y2="84.1"><stop offset="0.0169" class="f"/><stop offset="0.5" stop-color="#E35100"/><stop offset="1" class="d"/></linearGradient><path d="M27.3 64.2C29.2 51.9 46.3 53.7 46.3 53.7c-0.8 0.6-3.7 0.9-4.5 3.2 -2.8 7.7-0.1 24.6 17.1 31.7C60.7 89.4 24.4 82.3 27.3 64.2z" fill="url(#XMLID_85_)"/><linearGradient gradientUnits="userSpaceOnUse" x1="54.8" y1="41.3" x2="58.1" y2="44.3"><stop offset="0" stop-color="#EEA272"/><stop offset="0.1865" stop-color="#EFA777"/><stop offset="0.4064" stop-color="#F2B585"/><stop offset="0.643" stop-color="#F6CD9C"/><stop offset="0.8898" stop-color="#FCEEBB"/><stop offset="1" class="h"/></linearGradient><path d="M62.1 37.3c-0.1 0-0.2 0-0.2 0 -0.2 0.3-1 1.2-2.9 2.8 -3.6 2.9-5.1 2.2-7.8 2.8 -1.2 0.3-2.4 1.1-3.1 1.7 0.3 0.5 0.6 1.1 0.9 1.6 0.7 0.8 1.2 1.2 1.2 0.9 0.3-1.5 9.3-6.7 10-7.2C60.6 39.7 61.6 39 62.1 37.3z" fill="url(#XMLID_86_)"/><linearGradient gradientUnits="userSpaceOnUse" x1="35.5" y1="48.4" x2="50.7" y2="63.9"><stop offset="0.1966" class="d"/><stop offset="0.8427" class="m"/><stop offset="1" class="n"/></linearGradient><path d="M51.1 55.9c0.1-2.6-0.1-8.9-2.8-11.6 -2.1-2.1-2.5-4.5-2.8-7.2 -22.4 8.4-25.6 19.3-23.3 18.9C40.1 53.1 45.1 52.8 51.1 55.9z" fill="url(#XMLID_87_)"/><linearGradient gradientUnits="userSpaceOnUse" x1="847.5" y1="-1065" x2="847.5" y2="-1008" gradientTransform="matrix(0.9673 0.2537 -0.2537 0.9673 -1076.6656 855.2322)"><stop offset="0.0562" class="k"/><stop offset="1" class="l"/></linearGradient><path d="M3.4 71.2c0 0 1.6-20.2 11.7-27.6 7.9-5.8 1.8-3.7-1.3-3.5 -3.2 0.3-5 2.2-4.3 1.5 0 0 0 0 0-0.1C9.4 41.5 1.9 47.7 3.4 71.2z" fill="url(#XMLID_88_)"/><linearGradient gradientUnits="userSpaceOnUse" x1="15.9" y1="36.4" x2="-3.4" y2="67.8" gradientTransform="matrix(0.9897 -0.0801 0.0949 1.1727 -3.8203 -4.9468)"><stop offset="0.0562" class="k"/><stop offset="1" class="o"/></linearGradient><path d="M2.3 55.7c0 0 5.4-17.2 16.4-17 7.3 0.1 1.5-6.1-0.7-7.1 -2.3-1-2.8-0.9-3.4-0.5C13.8 31.8 6.6 31.5 2.3 55.7z" fill="url(#XMLID_89_)"/><linearGradient gradientUnits="userSpaceOnUse" x1="80.9" y1="67.8" x2="60.4" y2="71.8"><stop offset="0.0047" stop-color="#FFFAEE"/><stop offset="0.2757" stop-color="#F5F89B"/><stop offset="0.3102" stop-color="#F3ED91"/><stop offset="0.4668" stop-color="#ECC267"/><stop offset="0.6182" stop-color="#E6A046"/><stop offset="0.7611" stop-color="#E2872E"/><stop offset="0.8921" stop-color="#E07820"/><stop offset="1" class="d"/></linearGradient><path d="M76.2 72.5c0.8-0.8 0.2-3.9-4.9-5.8 -4.7-1.7-12 2.6-14.2 3.5 0 0 8.3-1.6 11.4-1C72.7 69.9 74.2 74.5 76.2 72.5z" fill="url(#XMLID_90_)"/><linearGradient gradientUnits="userSpaceOnUse" x1="-411.3" y1="427.6" x2="-411.3" y2="475.3" gradientTransform="matrix(0.992 0.1261 -0.1261 0.992 477.0624 -332.3914)"><stop offset="0.0562" class="k"/><stop offset="1" class="o"/></linearGradient><path d="M10.3 66.8c0 0-0.9-16.9 6.7-24.1 5.9-5.7 1.1-3.3-1.4-2.7 -2.6 0.6-3.9 2.4-3.4 1.7 0 0 0 0 0 0C12.1 41.5 6.5 47.6 10.3 66.8z" fill="url(#XMLID_91_)"/><linearGradient gradientUnits="userSpaceOnUse" x1="-414.4" y1="422.7" x2="-414.4" y2="470.4" gradientTransform="matrix(0.9324 0.3616 -0.3616 0.9324 554.92 -207.713)"><stop offset="0.0562" class="k"/><stop offset="1" class="o"/></linearGradient><path d="M4.5 61.5c0 0 3.2-16.6 12.3-21.8 7.1-4.1 1.8-2.9-0.7-3 -2.7-0.1-4.3 1.4-3.7 0.8 0 0 0 0 0 0C12.3 37.3 5.5 41.8 4.5 61.5z" fill="url(#XMLID_92_)"/><linearGradient gradientUnits="userSpaceOnUse" x1="13.8" y1="55.8" x2="0.6" y2="75.7" gradientTransform="matrix(0.8104 -0.5859 0.5859 0.8104 -28.537 20.3312)"><stop offset="0.0562" class="k"/><stop offset="1" class="p"/></linearGradient><path d="M15.3 68.3c0 0-1.7-10.1 2-15 3-4 0.4-2-1-1.5 -1.5 0.6-2 1.8-1.8 1.3C14.7 52.7 8 57.9 15.3 68.3z" fill="url(#XMLID_93_)"/><linearGradient gradientUnits="userSpaceOnUse" x1="21" y1="49.3" x2="7.8" y2="69.2" gradientTransform="matrix(0.8104 -0.5859 0.5859 0.8104 -28.537 20.3312)"><stop offset="0.0562" class="k"/><stop offset="1" class="p"/></linearGradient><path d="M17.3 58.8c0 0-1.7-10.1 2-15 3-4 0.4-2-1-1.5 -1.5 0.6-2 1.8-1.8 1.3C16.7 43.2 10 48.4 17.3 58.8z" fill="url(#XMLID_94_)"/><linearGradient gradientUnits="userSpaceOnUse" x1="12.3" y1="37.9" x2="6.5" y2="48.7"><stop offset="0.0562" class="k"/><stop offset="1" class="q"/></linearGradient><path d="M6.7 45c0 0 4.1-8.4 9.5-10 4.3-1.3 1.4-1.3 0-1.6 -1.4-0.3-2.4 0.2-2.1 0C14.6 33.2 6.9 33.4 6.7 45z" fill="url(#XMLID_95_)"/><linearGradient gradientUnits="userSpaceOnUse" x1="11.7" y1="44.5" x2="5.9" y2="55.3"><stop offset="0.0562" class="k"/><stop offset="1" class="q"/></linearGradient><path d="M6.1 51.6c0 0 4.1-8.4 9.5-10 4.3-1.3 1.4-1.3 0-1.6 -1.4-0.3-2.4 0.2-2.1 0C14 39.8 6.3 40.1 6.1 51.6z" fill="url(#XMLID_96_)"/><linearGradient gradientUnits="userSpaceOnUse" x1="18.3" y1="39.9" x2="12.7" y2="53.8"><stop offset="0.0562" class="k"/><stop offset="1" class="p"/></linearGradient><path d="M9.1 49.8c0 0 7.2-14.8 16.8-17.7 7.7-2.3 2.4-2.3 0-2.9 -2.5-0.6-4.3 0.4-3.6 0C23 28.9 9.4 29.4 9.1 49.8z" fill="url(#XMLID_97_)"/><linearGradient gradientUnits="userSpaceOnUse" x1="20.4" y1="33.1" x2="7.2" y2="53"><stop offset="0.0562" class="k"/><stop offset="1" class="p"/></linearGradient><path d="M14 41.8c0 0 4.5-9.2 10.4-11 4.8-1.4 1.5-1.4 0-1.8 -1.5-0.4-2.7 0.3-2.3 0C22.6 28.9 14.2 29.1 14 41.8z" fill="url(#XMLID_98_)"/><linearGradient gradientUnits="userSpaceOnUse" x1="21.3" y1="37.1" x2="9.2" y2="55.3"><stop offset="0.0562" class="k"/><stop offset="1" class="p"/></linearGradient><path d="M15.5 45.1c0 0 4.1-8.4 9.5-10 4.3-1.3 1.4-1.3 0-1.6 -1.4-0.3-2.4 0.2-2.1 0C23.3 33.3 15.6 33.5 15.5 45.1z" fill="url(#XMLID_99_)"/><linearGradient gradientUnits="userSpaceOnUse" x1="60.3" y1="34.3" x2="61.2" y2="36"><stop offset="0" stop-color="#8B8B89"/><stop offset="1" stop-color="#120500"/></linearGradient><path d="M62.3 34.9c0-0.9-0.2-1.2-4.4-1.2 0.5 0.2 1.3 0.7 2.2 1.4 1.2 1 1.4 2.1 1.5 3.2C62.1 37.5 62.4 36.4 62.3 34.9z" fill="url(#XMLID_100_)"/><linearGradient gradientUnits="userSpaceOnUse" x1="22.6" y1="28.5" x2="22.6" y2="23.2"><stop offset="0.0562" class="k"/><stop offset="1" class="l"/></linearGradient><path d="M37.8 23.2l-3.6 5.8c0 0-14.5-2.3-26.8 9.6C6.4 39.6 15.4 17.6 37.8 23.2z" fill="url(#XMLID_101_)"/><linearGradient gradientUnits="userSpaceOnUse" x1="23" y1="34.8" x2="34" y2="21.9" gradientTransform="matrix(0.9992 0.0398 -0.0398 0.9992 0.9958 -1.3319)"><stop offset="0.0562" class="k"/><stop offset="1" class="l"/></linearGradient><path d="M24.8 33.6c0 0 3.9-7.2 8.9-9.3C31.1 24.4 25.3 26.4 24.8 33.6z" fill="url(#XMLID_102_)"/><linearGradient gradientUnits="userSpaceOnUse" x1="15.5" y1="33.5" x2="9.7" y2="44.4"><stop offset="0.0562" class="k"/><stop offset="1" class="q"/></linearGradient><path d="M9.9 40.6c0 0 4.1-8.4 9.5-10 4.3-1.3 1.4-1.3 0-1.6 -1.4-0.3-2.4 0.2-2.1 0C17.8 28.8 10.1 29.1 9.9 40.6z" fill="url(#XMLID_103_)"/><linearGradient gradientUnits="userSpaceOnUse" x1="16.3" y1="35.8" x2="27.1" y2="23.3" gradientTransform="matrix(0.9946 0.1039 -0.1039 0.9946 3.786 -2.0567)"><stop offset="0.0562" class="k"/><stop offset="1" class="l"/></linearGradient><path d="M18.5 34.7c0 0 4.2-6.8 9.2-8.5C25.2 26.1 19.4 27.7 18.5 34.7z" fill="url(#XMLID_104_)"/><linearGradient gradientUnits="userSpaceOnUse" x1="13.4" y1="22.9" x2="26.3" y2="24.6" gradientTransform="matrix(0.9959 0.0903 -0.0903 0.9959 2.3457 -2.346)"><stop offset="0.0562" class="k"/><stop offset="1" class="l"/></linearGradient><path d="M25.7 23.2c0 0-3.2 1.4-8.8-0.9l5 2.5L25.7 23.2z" fill="url(#XMLID_105_)"/><linearGradient gradientUnits="userSpaceOnUse" x1="7" y1="23.1" x2="25.2" y2="25.6"><stop offset="0.0562" class="k"/><stop offset="1" class="l"/></linearGradient><path d="M24.2 24.1c0 0-4.2 1.6-12.4-0.8l7 2.8C19.6 25.3 24.2 24.1 24.2 24.1z" fill="url(#XMLID_106_)"/><linearGradient gradientUnits="userSpaceOnUse" x1="15.9" y1="22.2" x2="27.7" y2="23.9" gradientTransform="matrix(0.9959 0.0903 -0.0903 0.9959 2.3457 -2.346)"><stop offset="0.0562" class="k"/><stop offset="1" class="l"/></linearGradient><path d="M27.3 22.8c0 0-2.8 0.9-8-1.2l5 2.5C24.8 23.7 27.3 22.8 27.3 22.8z" fill="url(#XMLID_107_)"/><linearGradient gradientUnits="userSpaceOnUse" x1="15.2" y1="26.9" x2="4.5" y2="25.8"><stop offset="0.0562" class="k"/><stop offset="1" class="l"/></linearGradient><path d="M18.5 26c0 0-2.1 1.7-7.4 1.8l4.6 0.2L18.5 26z" fill="url(#XMLID_108_)"/><linearGradient gradientUnits="userSpaceOnUse" x1="10.9" y1="37.1" x2="25.7" y2="19.8" gradientTransform="matrix(0.9946 0.1039 -0.1039 0.9946 3.786 -2.0567)"><stop offset="0.0562" class="k"/><stop offset="1" class="l"/></linearGradient><path d="M13.4 34.9c0 0 7.2-9.3 13-11.4C23.5 23.3 14.5 26.6 13.4 34.9z" fill="url(#XMLID_109_)"/></g><linearGradient gradientUnits="userSpaceOnUse" x1="88.3" y1="117.4" x2="117.3" y2="72.7"><stop offset="0" class="j"/><stop offset="0.736" class="r"/><stop offset="0.7783" class="s"/><stop offset="0.8369" class="t"/><stop offset="0.889" class="u"/><stop offset="0.932" class="v"/><stop offset="0.9607" class="w"/></linearGradient><path d="M124.2 50.8c0 0 0.8 17.3-23.2 41.3 -2.7 2.7-17.2 16.2-16.6 20.3C84.5 113.8 122.3 106.6 124.2 50.8z" fill="url(#XMLID_110_)"/><linearGradient gradientUnits="userSpaceOnUse" x1="105.2" y1="22.7" x2="86.2" y2="14.4"><stop offset="0" class="e"/><stop offset="0.736" class="r"/><stop offset="0.7783" class="s"/><stop offset="0.8369" class="t"/><stop offset="0.889" class="u"/><stop offset="0.932" class="v"/><stop offset="0.9607" class="w"/></linearGradient><path d="M77.6 10.1c28.9 2.2 34.5 23 34.5 21.7C112.2 11.6 84.7 10.1 77.6 10.1z" fill="url(#XMLID_111_)"/><linearGradient gradientUnits="userSpaceOnUse" x1="117.9" y1="41.7" x2="91.4" y2="17.1"><stop offset="0" class="j"/><stop offset="0.736" class="r"/><stop offset="0.7783" class="s"/><stop offset="0.8369" class="t"/><stop offset="0.889" class="u"/><stop offset="0.932" class="v"/><stop offset="0.9607" class="w"/></linearGradient><path d="M86.4 18c0 0 20.1 4.1 25.7 25.4 0.8 2.8-2.4-17.3-1.4-15.4C111.7 29.9 102.6 18.6 86.4 18z" fill="url(#XMLID_112_)"/><linearGradient gradientUnits="userSpaceOnUse" x1="1.1" y1="145.4" x2="-10" y2="134" gradientTransform="matrix(0.9996 -0.0282 0.0282 0.9996 104.7769 -104.6242)"><stop offset="0" class="e"/><stop offset="0.736" class="r"/><stop offset="0.7783" class="s"/><stop offset="0.8369" class="t"/><stop offset="0.889" class="u"/><stop offset="0.932" class="v"/><stop offset="0.9607" class="w"/></linearGradient><path d="M94.5 17.5c0 0 18.1 3.8 18.3 32.5 0.1 20.3 3.1 7.6 6.1 3.1 2.6-3.9 0.8-8.8 0.8-8.7 0 0-1.3-3.7-0.4-2.2 0 0.1-1.2-1-1.2-1C118.2 41.1 117.3 20.5 94.5 17.5z" fill="url(#XMLID_113_)"/><linearGradient gradientUnits="userSpaceOnUse" x1="113.4" y1="55.8" x2="119.7" y2="34.3"><stop offset="0" class="e"/><stop offset="0.736" class="r"/><stop offset="0.7783" class="s"/><stop offset="0.8369" class="t"/><stop offset="0.889" class="u"/><stop offset="0.932" class="v"/><stop offset="0.9607" class="w"/></linearGradient><path d="M114.9 21.4c0 0 6.5 16.9-0.4 25.4 -2.2 2.8-2.5 16.8 0.2 15.5 2.8-1.3 2.2 7.5 1.8 8.5 0 0 0 0 0 0C116.7 70.9 130.1 49.1 114.9 21.4z" fill="url(#XMLID_114_)"/><linearGradient gradientUnits="userSpaceOnUse" x1="-52" y1="212.8" x2="-52.2" y2="196.4" gradientTransform="matrix(0.9992 -0.0412 0.0412 0.9992 151.8961 -153.906)"><stop offset="0" class="e"/><stop offset="0.736" class="r"/><stop offset="0.7783" class="s"/><stop offset="0.8369" class="t"/><stop offset="0.889" class="u"/><stop offset="0.932" class="v"/><stop offset="0.9607" class="w"/></linearGradient><path d="M105.8 39.2c0 0 4.1 12-0.2 20.6l3.2 7.2C111.2 61.2 114.3 48.8 105.8 39.2z" fill="url(#XMLID_115_)"/><linearGradient gradientUnits="userSpaceOnUse" x1="-172.7" y1="332.1" x2="-161.5" y2="309.9" gradientTransform="matrix(0.9975 -0.0707 0.0707 0.9975 254.6004 -268.4704)"><stop offset="0" class="e"/><stop offset="0.736" class="r"/><stop offset="0.7783" class="s"/><stop offset="0.8369" class="t"/><stop offset="0.889" class="u"/><stop offset="0.932" class="v"/><stop offset="0.9607" class="w"/></linearGradient><path d="M113 37.8c0 0 2.8 19-7.4 36.2 0.2 4-0.5 7.6-1.5 10.5 0.4 0.6 1 1 1.8 1.1 -0.3 0.3-0.7 0.6-1 0.9 -0.6 0.3-1.2 0.6-1.9 0.9 -0.1 0.3-0.3 0.6-0.4 0.9 0.7-0.5 1.4-1.1 2.2-1.7 2.1-0.9 4-1.6 4-1.6 0 0-0.4 0.1-1.3 0.5 -0.6 0.2-1.2 0.3-1.6 0.3C113.9 78.4 124.7 62.3 113 37.8zM101.1 88.4c-0.9 0.5-1.6 1-1.7 1.4 -0.1 0.3 0.5 0.1 1.6-0.5C101 89 101.1 88.7 101.1 88.4z" fill="url(#XMLID_116_)"/><linearGradient gradientUnits="userSpaceOnUse" x1="99.2" y1="87.7" x2="100.7" y2="63.2" gradientTransform="matrix(0.9975 -0.0707 0.0707 0.9975 -10.9669 13.6507)"><stop offset="0" class="j"/><stop offset="0.736" class="r"/><stop offset="0.7783" class="s"/><stop offset="0.8369" class="t"/><stop offset="0.889" class="u"/><stop offset="0.932" class="v"/><stop offset="0.9607" class="w"/></linearGradient><path d="M100.4 58.1c0 0 8.1 22.9-17.7 44.4 -1.5 1.3 10.5 0.7 11.5 0.3 3.1-1.4 6.7-10.8 6.3-9.6C100.1 94.2 112.5 76.6 100.4 58.1z" fill="url(#XMLID_117_)"/><linearGradient gradientUnits="userSpaceOnUse" x1="58.4" y1="113.9" x2="105.9" y2="85.5"><stop offset="0" stop-color="#B9120D"/><stop offset="0.078" stop-color="#BB180D"/><stop offset="0.1822" stop-color="#C0290C"/><stop offset="0.3013" stop-color="#C8450A"/><stop offset="0.4314" stop-color="#D36C08"/><stop offset="0.5706" stop-color="#E29E05"/><stop offset="0.7151" stop-color="#F4DA02"/><stop offset="0.7921" class="r"/><stop offset="0.8136" stop-color="#FEFD07"/><stop offset="0.8455" stop-color="#FEFD1B"/><stop offset="0.8837" stop-color="#FEFE3C"/><stop offset="0.9268" stop-color="#FFFE69"/><stop offset="0.9736" stop-color="#FFFFA3"/><stop offset="1" stop-color="#FFFFC7"/></linearGradient><path d="M111.7 72.6c0 0-4.9 29.7-38.5 32.1 -13.2 0.9-32-2.1-30.4 2.9 0.5 1.6 3 8 8.6 9.5C66.8 121.2 107.4 119.9 111.7 72.6z" fill="url(#XMLID_118_)"/><linearGradient gradientUnits="userSpaceOnUse" x1="54.2" y1="93.6" x2="102.9" y2="100.2" gradientTransform="matrix(0.9951 0.0989 -0.0989 0.9951 10.3843 -6.0754)"><stop offset="0.0562" class="k"/><stop offset="1" class="l"/></linearGradient><path d="M83.7 95.1c0 0-20.6 4.7-33.9-6.6 -12.2-10.4-6.1-1.6-4.5 2.7 1.7 4.4-7.9 1-9.3 0.3C34.6 90.8 58.6 105.9 83.7 95.1z" fill="url(#XMLID_119_)"/><linearGradient gradientUnits="userSpaceOnUse" x1="39" y1="89.9" x2="95.5" y2="107.6" gradientTransform="matrix(0.9895 0.1448 -0.1448 0.9895 14.2829 -5.8352)"><stop offset="0.0562" class="k"/><stop offset="1" class="l"/></linearGradient><path d="M70.4 106.3c0 0-24.5-4.8-32.3-21.4 -6.6-14.2-4.9-3.8-5.2 1 -0.3 4.9-7.2-1.8-8.1-2.9 0 0 0 0 0 0C24.6 83 37.4 103 70.4 106.3z" fill="url(#XMLID_120_)"/><linearGradient gradientUnits="userSpaceOnUse" x1="-601.5" y1="629" x2="-574.6" y2="680.4" gradientTransform="matrix(0.9837 -0.1799 0.1799 0.9837 500.9515 -643.7268)"><stop offset="0.0562" class="k"/><stop offset="1" class="l"/></linearGradient><path d="M43.6 104.2c0 0-11.7-9.1-17-21.5 -4.4-1.5-10.3-5.1-10.5-5.7C18 86.7 27.9 97.9 43.6 104.2z" fill="url(#XMLID_121_)"/></svg>