<svg xmlns="http://www.w3.org/2000/svg" width="48" height="48"><style>.a{stop-color:#000;}.b{stop-color:#f2be7f;}.c{stop-color:#ffffdc;}.d{stop-color:#a25f00;}.e{stop-color:#a4d8e5;}.f{stop-color:#0c418f;}.g{stop-color:#000060;}.h{stop-color:#1b609d;}.i{stop-color:#9fd2e5;}.j{stop-color:#4187b8;}.k{stop-color:#000040;}.l{stop-color:#b4b4dc;}.m{stop-color:#fff;}.n{fill:#340000;}.o{fill:#7b5516;}.p{fill:#484848;}.q{fill:#0c418f;}.r{fill:#4a6eaa;}</style><radialGradient gradientUnits="userSpaceOnUse" cx="111.3" cy="123.5" r="91" fx="111.25" fy="123.5" gradientTransform="matrix(0.205043,0,0,0.205043,2.74915,1.042583)"><stop offset="0.00" class="a"/><stop offset="0.50" class="a"/><stop offset="1.00" style="stop-color:#000;stop-opacity:0"/></radialGradient><radialGradient gradientUnits="userSpaceOnUse" cx="151.8" cy="175.7" r="126.3" fx="151.75" fy="175.67" gradientTransform="matrix(0.205043,0,0,0.205043,2.74915,1.042583)"><stop offset="0.00" class="b"/><stop offset="1.00" class="c"/></radialGradient><linearGradient gradientUnits="userSpaceOnUse" x1="100.1" y1="79.1" x2="94.4" y2="45.6" gradientTransform="matrix(0.205043,0,0,0.205043,2.74915,1.042583)"><stop offset="0.00" stop-color="#c3ad7b"/><stop offset="1.00" class="d"/></linearGradient><radialGradient gradientUnits="userSpaceOnUse" cx="149.8" cy="87" r="90.9" fx="149.75" fy="87" gradientTransform="matrix(0.205043,0,0,0.205043,2.74915,1.042583)"><stop offset="0.00" class="b"/><stop offset="1.00" class="c"/></radialGradient><linearGradient gradientUnits="userSpaceOnUse" x1="80.2" y1="171.4" x2="82.5" y2="164.3" gradientTransform="matrix(0.205043,0,0,0.205043,2.74915,1.042583)"><stop offset="0.00" stop-color="#aa944b"/><stop offset="1.00" style="stop-color:#aa944b;stop-opacity:0"/></linearGradient><linearGradient gradientUnits="userSpaceOnUse" x1="34.9" y1="84" x2="34.9" y2="58.1" gradientTransform="matrix(0.205043,0,0,0.205043,2.74915,1.042583)"><stop offset="0.01" stop-color="#d2b170"/><stop offset="1.00" class="d"/></linearGradient><linearGradient gradientUnits="userSpaceOnUse" x1="85.5" y1="124.3" x2="85.5" y2="71.3" gradientTransform="matrix(0.205043,0,0,0.205043,2.74915,1.042583)"><stop offset="0.00" style="stop-color:#a25f00;stop-opacity:0"/><stop offset="1.00" class="d"/></linearGradient><linearGradient gradientUnits="userSpaceOnUse" x1="29.2" y1="187.6" x2="29.2" y2="165.8" gradientTransform="matrix(0.205043,0,0,0.205043,2.74915,1.042583)"><stop offset="0.00" class="e"/><stop offset="0.50" class="f"/><stop offset="1.00" class="g"/></linearGradient><linearGradient gradientUnits="userSpaceOnUse" x1="15.7" y1="170.4" x2="15.7" y2="141.6" gradientTransform="matrix(0.205043,0,0,0.205043,2.74915,1.042583)"><stop offset="0.00" class="e"/><stop offset="0.50" class="f"/><stop offset="1.00" class="g"/></linearGradient><radialGradient gradientUnits="userSpaceOnUse" cx="41.8" cy="67" r="77.8" fx="41.75" fy="67" gradientTransform="matrix(0.205043,0,0,0.205043,2.74915,1.042583)"><stop offset="0.00" class="g"/><stop offset="0.50" class="f"/><stop offset="1.00" class="e"/></radialGradient><radialGradient gradientUnits="userSpaceOnUse" cx="57.5" cy="54.3" r="71.4" fx="57.5" fy="54.25" gradientTransform="matrix(0.205043,0,0,0.205043,2.74915,1.042583)"><stop offset="0.00" class="g"/><stop offset="0.50" class="f"/><stop offset="1.00" class="e"/></radialGradient><linearGradient gradientUnits="userSpaceOnUse" x1="46.7" y1="25.3" x2="9.2" y2="90.3" gradientTransform="matrix(0.205043,0,0,0.205043,2.74915,1.042583)"><stop offset="0.01" class="h"/><stop offset="0.50" class="i"/><stop offset="1.00" class="j"/></linearGradient><linearGradient gradientUnits="userSpaceOnUse" x1="66.4" y1="24.4" x2="123.5" y2="81.4" gradientTransform="matrix(0.205043,0,0,0.205043,2.74915,1.042583)"><stop offset="0.00" class="e"/><stop offset="0.67" class="f"/><stop offset="1.00" class="k"/></linearGradient><linearGradient gradientUnits="userSpaceOnUse" x1="71.6" y1="36.5" x2="61.5" y2="8.9" gradientTransform="matrix(0.205043,0,0,0.205043,2.74915,1.042583)"><stop offset="0.00" class="e"/><stop offset="1.00" class="f"/></linearGradient><linearGradient gradientUnits="userSpaceOnUse" x1="115.1" y1="222" x2="170.2" y2="126.5" gradientTransform="matrix(0.205043,0,0,0.205043,2.74915,1.042583)"><stop offset="0.01" class="l"/><stop offset="1.00" class="a"/></linearGradient><linearGradient gradientUnits="userSpaceOnUse" x1="139.2" y1="224.1" x2="168.2" y2="173.9" gradientTransform="matrix(0.205043,0,0,0.205043,2.74915,1.042583)"><stop offset="0.01" class="l"/><stop offset="1.00" class="a"/></linearGradient><linearGradient gradientUnits="userSpaceOnUse" x1="185.8" y1="171.8" x2="185.8" y2="72.3" gradientTransform="matrix(0.205043,0,0,0.205043,2.74915,1.042583)"><stop offset="0.00" stop-color="#6498c1"/><stop offset="0.20" class="f"/><stop offset="1.00" class="k"/></linearGradient><linearGradient gradientUnits="userSpaceOnUse" x1="185.2" y1="149.8" x2="185.2" y2="60.7" gradientTransform="matrix(0.205043,0,0,0.205043,2.74915,1.042583)"><stop offset="0.00" class="e"/><stop offset="0.20" class="f"/><stop offset="0.50" class="k"/></linearGradient><linearGradient gradientUnits="userSpaceOnUse" x1="151.2" y1="134.7" x2="151.2" y2="83.5" gradientTransform="matrix(0.205043,0,0,0.205043,2.74915,1.042583)"><stop offset="0.00" class="e"/><stop offset="0.50" class="f"/><stop offset="1.00" class="g"/></linearGradient><linearGradient gradientUnits="userSpaceOnUse" x1="132.1" y1="33.6" x2="171.1" y2="88.1" gradientTransform="matrix(0.205043,0,0,0.205043,2.74915,1.042583)"><stop offset="0.00" class="j"/><stop offset="1.00" stop-color="#074e92"/></linearGradient><linearGradient gradientUnits="userSpaceOnUse" x1="162.2" y1="71.1" x2="134.7" y2="23.4" gradientTransform="matrix(0.205043,0,0,0.205043,2.74915,1.042583)"><stop offset="0.01" class="h"/><stop offset="0.50" class="i"/><stop offset="1.00" class="j"/></linearGradient><linearGradient gradientUnits="userSpaceOnUse" x1="50.3" y1="74.9" x2="94.6" y2="30.7" gradientTransform="matrix(0.205043,0,0,0.205043,2.74915,1.042583)"><stop offset="0.00" stop-color="#a5b4d3"/><stop offset="1.00" style="stop-color:#a5b4d3;stop-opacity:0.3"/></linearGradient><linearGradient gradientUnits="userSpaceOnUse" x1="48.2" y1="72.8" x2="92.4" y2="28.5" gradientTransform="matrix(0.205043,0,0,0.205043,2.74915,1.042583)"><stop offset="0.00" stop-color="#264b92"/><stop offset="1.00" style="stop-color:#264b92;stop-opacity:0.3"/></linearGradient><radialGradient gradientUnits="userSpaceOnUse" cx="58.6" cy="67.2" r="8.5" fx="58.580002" fy="67.169998" gradientTransform="matrix(0.205043,0,0,0.205043,2.74915,1.042583)"><stop offset="0.00" stop-color="#600000"/><stop offset="0.50" stop-color="#c00000"/><stop offset="1.00" stop-color="#f6aa00"/></radialGradient><radialGradient gradientUnits="userSpaceOnUse" cx="59.6" cy="65.1" r="3.8" fx="59.610001" fy="65.110001" gradientTransform="matrix(0.205043,0,0,0.205043,2.74915,1.042583)"><stop offset="0.01" class="m"/><stop offset="1.00" class="a"/></radialGradient><radialGradient gradientUnits="userSpaceOnUse" cx="51.5" cy="87.5" r="13" fx="51.5" fy="87.5" gradientTransform="matrix(0.205043,0,0,0.205043,2.74915,1.042583)"><stop offset="0.00" stop-color="#769eb8"/><stop offset="1.00" class="m"/></radialGradient><radialGradient gradientUnits="userSpaceOnUse" cx="47.3" cy="82.5" r="3.8" fx="47.25" fy="82.5" gradientTransform="matrix(0.205043,0,0,0.205043,2.74915,1.042583)"><stop offset="0.01" class="m"/><stop offset="1.00" class="a"/></radialGradient><path d="M44.2 26.4C44.2 36.7 35.9 45 25.6 45 15.3 45 6.9 36.7 6.9 26.4 6.9 16.1 15.3 7.7 25.6 7.7 35.9 7.7 44.2 16.1 44.2 26.4z" fill="url(#XMLID_1_)"/><path d="M9 11.7L3.8 18.4 6.6 32.5 32.2 40.8 38.3 30.4 36.5 14.8 16.8 5.8 9.2 11.5 9 11.7z" class="n"/><path d="M36.7 20.4L17.2 27.7 8.2 13.4 4.2 18.5 6.9 32.2 32 40.3 37.9 30.3 36.7 20.4z" fill="url(#XMLID_2_)"/><path d="M16.9 29.5L9.5 18.9C5.3 22.6 9.7 27.4 9.1 28 8.7 28.5 7.8 28 6.3 26.5 4 24.2 6.7 29.1 7.9 30.8 8.7 32 7.7 31.9 5 30.6L4.1 17.2 7.8 12.8 44 17.9 33.3 24 16.9 29.5z" fill="url(#XMLID_3_)"/><path d="M43 18L17.2 27.7 7.8 12.8 7.4 13 17 28.3 43.2 18.4 43 18z" class="n"/><path d="M36.7 20.4L36.3 17 8.6 12.9 8.4 13.1 8.2 13.4 17.2 27.7 36.7 20.4z" fill="url(#XMLID_4_)"/><path d="M6.9 32.2L32 40.3 32.7 39.1 6.6 30.5 6.9 32.2z" fill="url(#XMLID_5_)"/><path d="M36.7 16.8L36.3 17 36.7 20.4 32.1 22.1C34.4 27 32.7 33 32.7 33 36.2 31.2 37.1 25.8 37.3 21.7L36.7 16.8z" class="o"/><path d="M25.9 16.4C29.4 17.4 31 19.8 32.1 22.1L36.7 20.4 36.3 17 32.7 16.5 32.4 17.7 25.9 16.4z" class="o"/><path d="M11.4 13.4L8.6 12.9 8.4 13.1 8.2 13.4 11.2 18.3 11.2 18.3C11.3 17.5 11.6 16.8 11.6 16.8 11.6 16.8 11.6 16.9 11.7 16.9L11.6 16C11.6 15.3 11.4 14.3 11.4 13.4L11.4 13.4z" fill="url(#XMLID_6_)"/><path d="M25.9 16.4C25.9 16.4 23.1 15.8 21.2 15.7 19.2 15.5 16.8 17.4 16 17.9 15.6 18.2 15.2 18.4 14.7 18.7 14.7 20.6 15.2 24.8 18.3 26.5 18.3 16.3 25.9 16.4 25.9 16.4L25.9 16.4z" fill="url(#XMLID_7_)"/><path d="M15.6 35L6.9 32.2 5.9 27.9 4.1 27.3C4.1 27.3 6 33.2 9.4 38 16.2 42.8 14.5 40.5 14.5 40.5 15.8 41.2 16.6 41.2 16.6 41.2 16.6 40.5 13.5 40.3 12.7 35.4 13.6 37.3 17.3 38.3 17.5 38.1 17.6 38 17 37 15.7 35.1L15.6 35z"/><path d="M13.1 39.8C13.1 39.8 8.7 39.5 4.9 32.2 2.7 24.5 7.9 36.6 13.1 39.8L13.1 39.8z" fill="url(#XMLID_8_)"/><path d="M2.8 23C2.8 23 3.3 34.5 9.2 36.4 6.2 32.4 5.3 24.5 5.3 24.5L2.8 23z" fill="url(#XMLID_9_)"/><path d="M6.2 30.3C5 30.6 2.7 26.3 2.8 21.8 2.8 18.8 3.3 16.5 4.3 14.7L5.3 23.1C5.3 23.1 5.3 28.9 6.2 30.3L6.2 30.3z" fill="url(#XMLID_10_)"/><path d="M22 3.6C22 3.6 7.9 5.9 4.3 14.7 1.8 20.9 7.4 26.2 8.3 25.4 8.3 25.4 5.2 21.4 8.2 15.5 10.2 11.5 14.8 7.5 22 3.6z"/><path d="M22 3.6C22 3.6 7.9 5.9 4.3 14.7 1.8 20.9 7.4 26.2 8.3 25.4 8.3 25.4 4.4 20.8 7.8 14.5 10.1 10.4 14.8 6.7 22 3.6z" fill="url(#XMLID_11_)"/><path d="M4.3 16.4C3.5 21.4 5.1 19.5 6.4 15.6 5.1 17.8 4.3 17.2 4.3 16.4L4.3 16.4zM5.8 12.9C3.6 17.4 5.7 16.1 8.1 12.8 6.2 14.5 5.6 13.7 5.8 12.9L5.8 12.9zM10.3 8.2C7.1 11.1 9.1 10.8 12.1 8.9 10.1 9.6 9.8 8.8 10.3 8.2L10.3 8.2zM8 10.3C4.7 13.8 7 13.2 10.1 10.8 7.9 11.9 7.6 10.9 8 10.3L8 10.3zM14.3 7.4C12.6 7.9 12.4 7.1 12.8 6.7 9.8 8.9 11.7 8.8 14.3 7.4L14.3 7.4z" fill="url(#XMLID_12_)"/><path d="M35.7 5.9C34.7 4.9 32.2 4.2 30.8 3.9 29.6 3.7 28.3 3.6 27.1 3.5 26.2 3.5 23.8 3.5 22.8 3.6 20.3 3.9 19.2 4.8 17.2 6.3 15.3 7.6 12.5 9.1 11.7 11.4 11 12.7 11.6 14.8 11.6 16L11.7 16.9C11.6 16.9 11.6 16.8 11.6 16.8 11.6 16.8 10.5 19.6 11.8 20.9 11.8 20.8 11.8 20.7 11.8 20.6L11.8 20.9C11.8 20.9 12.3 19.9 13.3 19.4 14.4 18.8 15.3 18.4 16.1 17.9 16.8 17.4 19.2 15.5 21.2 15.7 22.5 15.8 26.2 16.4 32.4 17.7L33.1 14.5 31.9 13.6C32 13.3 32.1 12.9 32.3 12.6 32.8 11.9 32.8 11.2 32.8 10.3 33.8 10.1 35 9.7 35.7 8.8 36.3 8 36.5 6.6 35.7 5.9L35.7 5.9z"/><path d="M35.7 5.9C34.7 4.9 32.2 4.2 30.8 3.9 29.6 3.7 28.3 3.6 27.1 3.5 26.2 3.5 23.8 3.5 22.8 3.6 20.3 3.9 19.2 4.8 17.2 6.3 15.3 7.6 12.5 9.1 11.7 11.4 11 12.7 11.6 14.8 11.6 16L11.7 16.9C11.6 16.9 11.6 16.8 11.6 16.8 11.6 16.8 10.5 19.6 11.8 20.9 11.9 19.6 14 18.6 14 18.6L15.6 17.8C15.8 17.6 16.5 17.2 16.7 17 17.9 16.3 19 15.5 20.4 15.3 22.4 15.2 24.2 16 26.2 15.8 27.7 15.6 29.9 15.4 31.3 14.5 31.9 14.1 32 13.3 32.3 12.6 32.8 11.9 32.8 11.2 32.8 10.3 33.9 10.1 35 9.7 35.7 8.8 36.3 8 36.5 6.6 35.7 5.9L35.7 5.9z" fill="url(#XMLID_13_)"/><path d="M21.2 2.5C20.9 2.6 20.7 2.7 20.5 2.9 20.7 2.7 20.9 2.6 21.2 2.5L21.2 2.5zM21.2 2.5C19.2 3.8 18.5 6.4 18.5 6.4 18.7 6.3 19 5.9 19.4 5.5 19.1 5.8 18.9 6 18.7 6.2 18.8 6.1 19.6 4 21.2 2.5L21.2 2.5zM20.5 1C16.1 4.3 16.3 6.8 16.3 6.8 16.4 6.8 16.5 6.8 16.6 6.7 16.6 6.7 16.5 4.7 20.5 1L20.5 1zM21.6 3.6C20.6 5 21.4 5.3 21.4 5.3 21.4 5.3 21.1 4.9 21.6 3.6zM20.5 4.3C20.9 4 21.2 3.8 21.6 3.6 21.2 3.8 20.9 4 20.6 4.3 20.5 4.3 20.5 4.3 20.6 4.3L20.5 4.3z" class="p"/><path d="M12.1 10.5C14.9 1.9 20.5 1 20.5 1 16.1 4.3 16.3 6.8 16.3 6.8 17.1 6.5 19.4 3.2 21.2 2.5 19.2 3.8 18.5 6.4 18.5 6.4 18.9 6.2 20 4.3 21.6 3.6 20.6 5 21.4 5.3 21.4 5.3L12.1 10.5z" fill="url(#XMLID_14_)"/><path d="M45.5 19.6L36.6 15.9 35.8 24.5C35.9 25.1 36 25.7 36 26.3 36 26.2 36 26.1 36 26 35.3 37.9 28.2 44 24.6 45.6 29.1 45.9 31.8 44.3 31.8 44.3 31.9 44.3 31.3 45.1 29.7 46 31.7 46 36.6 44.2 37.6 42.2L38.1 42.4C38.1 42.4 47.8 35.6 45.5 19.6L45.5 19.6z"/><path d="M36 26C35.3 37.9 28.2 44 24.6 45.6 33.4 43.7 36.5 32.7 36 26L36 26z" fill="url(#XMLID_15_)"/><path d="M29.7 46C29.7 46 36.7 43.3 37.5 37 40.8 37.4 34.1 45.1 29.7 46L29.7 46z" fill="url(#XMLID_16_)"/><path d="M30.9 15.2C28.6 11.9 25.1 10.8 21.8 10.8 27.8 11.6 36.5 20.1 31.6 29.4 34.5 25.5 33.5 19.1 30.9 15.2L30.9 15.2z"/><path d="M36 25.6C34.4 29.1 31.6 29.4 31.6 29.4 31.6 29.4 34 29.9 35.9 27.5 36.2 27.2 36.2 26.5 36 25.6L36 25.6z"/><path d="M45.5 19.6L36.6 15.9 35.8 24.5C35.9 25 36 25.5 36 26 36 26 36 26 36 26 36 26.1 36 26.2 36 26.3 36 26.2 36 26.1 36 26 36 26.5 35.9 26.9 35.9 27.3 35.8 29.2 35.8 32.6 36.9 34.7 37.7 33.5 38.5 32.1 38.8 30.6 38.9 32.1 38.2 34 37.5 35.5 37.7 35.8 38 36 38.3 36.2 38.4 36.2 38.5 36.2 38.7 36.3 39.6 35.1 41.2 32.8 41.6 30.6 41.8 32.3 40.8 34.7 40 36.3 43.4 35.3 45.7 28 45.7 27.8 45.7 27.8 45.7 27.8 45.7 27.8 46 25.4 46 22.7 45.5 19.6L45.5 19.6z" fill="url(#XMLID_17_)"/><path d="M40.8 34.4C40.5 35.1 40.2 35.7 40 36.3 41.2 35.9 42.3 34.8 43.1 33.4 42.3 34 41.4 34.3 40.8 34.4L40.8 34.4z" class="q"/><path d="M37.8 34.8C37.7 35 37.6 35.3 37.5 35.5 37.7 35.8 38 36 38.3 36.2 38.4 36.2 38.5 36.2 38.6 36.3 39.6 35.1 41.2 32.8 41.6 30.6 40.5 33.4 38.8 34.4 37.8 34.8L37.8 34.8z" class="q"/><path d="M38.5 23.6C39.1 26.9 36.9 31.7 36.9 31.7 36.9 31.7 40.2 31.1 41.6 24.1 41.6 24.1 41.3 29 40.7 30.1 40.7 30.1 43.9 28.6 44.5 22.6 45.2 16.5 40.8 12.8 39.5 13.6 38.5 14 38.2 17.4 38.5 23.6z" fill="url(#XMLID_18_)"/><path d="M45.7 20.3C45.7 20.3 45.7 20.3 45.7 20.3 45.3 18.1 44.8 16.1 44 14.3 42 9.6 38.7 6.7 34.8 5.6 26.1 4.7 21.8 10.8 21.8 10.8 25.1 10.8 28.6 11.9 30.9 15.2 33.5 19.1 34.5 25.5 31.6 29.4 31.6 29.4 37.7 28.6 37.1 18.6 37.1 18.6 39.2 22.8 36.4 28.6 36.4 28.6 42 27.2 40.3 16.4 40.3 16.4 41.6 18.9 41.2 24.6 41.2 24.6 43.5 23 43.5 18.1 43.5 18.1 45.1 23.2 43.5 26.5 43.5 26.5 43.5 26.4 43.6 26.3 44.1 25.9 46.1 24.3 45.7 20.3L45.7 20.3z" fill="url(#XMLID_19_)"/><path d="M31.3 15.8C32.4 17.7 33.1 19.8 33.3 21.9 33.5 22.4 33.9 23.1 34.4 22.9 34.9 22.8 35.3 22.2 35.6 21.8 36 21.3 36.1 20.7 36.5 20.2 36.6 19.9 36.8 19.7 36.9 19.4 36.9 19.3 36.8 18.6 37.1 18.6 37.1 18.6 37.1 18.6 37.1 18.6 37.1 18.6 37.1 18.6 37.1 18.7 37.3 18.8 37.3 19.1 37.4 19.3 37.5 19.6 37.6 19.9 37.6 20.2 37.8 20.7 38.1 21.6 38.8 21.1 39.1 20.8 39.3 20.4 39.4 20 39.6 19.7 39.7 19.3 39.7 18.9 39.8 18.2 39.8 17.2 40.3 16.6 40.3 16.6 40.3 16.5 40.3 16.4 40.3 16.4 40.3 16.5 40.4 16.7 40.7 16.8 41 17 41.3 16.8 41.6 16.7 41.7 16.3 41.7 16 41.9 15.6 41.9 15.2 42 14.7 42.1 14.2 42.2 13.7 42.1 13.2 42.4 13.7 42.6 14.2 42.8 14.7 42.9 15.2 43.1 15.6 43.1 16.1 43.2 16.4 43.2 16.8 43.2 17.2 43.2 17.5 43.3 17.9 43.6 18.1 43.7 16.4 44 14.6 43.4 13 42.6 11.3 41.4 9.8 40 8.5 38.5 7.2 36.8 6.1 34.9 5.6 26.2 4.7 21.9 10.9 21.9 10.9 23.6 10.9 25.4 11.2 27.1 11.9 28.8 12.8 30.2 14.1 31.3 15.8L31.3 15.8z" fill="url(#XMLID_20_)"/><path d="M28.3 7.7C28.9 8.5 28.3 8.8 26.9 8.6 31 9.9 30 8.8 28.3 7.7L28.3 7.7zM32.2 7.1C36.1 7.5 35 6.7 33.3 6 34 6.6 33.5 7 32.2 7.1L32.2 7.1zM35 10C35.5 10.9 34.8 11.1 33.4 10.9 37.6 12.6 36.7 11.3 35 10L35 10zM36.9 8.9C37.5 9.8 36.8 10.1 35.3 9.8 39.5 11.5 38.6 10.2 36.9 8.9L36.9 8.9zM28.2 9.8C32.4 11.5 31.5 10.2 29.8 8.9 30.3 9.8 29.6 10 28.2 9.8L28.2 9.8zM32.1 10.2C32.7 11.1 31.9 11.3 30.5 11.1 34.7 12.8 33.8 11.5 32.1 10.2L32.1 10.2zM35.7 8.1C35.4 7.8 34.9 7.5 34.3 7.3 35 8 34.4 8.4 32.9 8.5 36.1 9 36.4 8.6 35.7 8.1 40.1 8.8 39 7.8 37 6.9 37.7 7.6 37.1 8 35.7 8.1L35.7 8.1zM31.2 9.7C35.6 10.5 34.5 9.5 32.6 8.6 33.3 9.3 32.6 9.7 31.2 9.7L31.2 9.7zM31.2 7.4C31.4 7.9 30.9 8.2 29.8 8.2 33.4 8.9 32.7 8.1 31.2 7.3 31.2 7.1 30.6 6.6 30 6.1 30.4 6.8 29.8 7 28.6 6.9 30.3 7.5 31 7.6 31.2 7.4L31.2 7.4zM37.6 11.7C41.6 14.2 41 12.8 39.4 11.1 39.8 12.1 39 12.2 37.6 11.7L37.6 11.7zM35.5 12.6C39.5 15.2 38.8 13.7 37.3 12 37.7 13.1 36.9 13.2 35.5 12.6L35.5 12.6zM26.4 9C26.9 9.9 26.2 10.1 24.8 9.9 29 11.6 28.1 10.3 26.4 9L26.4 9zM39.8 9C40.2 10 39.5 10.1 38.1 9.6 42 12 41.3 10.6 39.8 9L39.8 9zM32.6 12.8C36.9 15.4 36.1 13.9 34.5 12.2 35 13.2 34.1 13.3 32.6 12.8L32.6 12.8zM28.3 10.5C28.8 11.4 28.1 11.6 26.7 11.3 30.9 13 30 11.8 28.3 10.5L28.3 10.5zM31.2 12.1C31.7 13 31 13.2 29.6 12.9 33.8 14.6 32.9 13.4 31.2 12.1L31.2 12.1zM30.7 14.7C34.4 18.4 34 16.6 32.8 14.5 33 15.7 32.1 15.6 30.7 14.7L30.7 14.7z" fill="url(#XMLID_21_)"/><path d="M34.5 23C33.1 22.1 33.3 19.8 33.3 19.8 33.4 20.5 34.4 20.4 34.4 20.4 34.2 19.7 34.2 16.2 34.2 16.2 35.6 21.4 36.6 20.8 36.2 15.6 36.2 15.6 38.3 19.6 34.5 23L34.5 23z" class="r"/><path d="M37.9 20C38.2 19.2 37.6 16.1 37.6 16.1 37.6 16.1 38.1 17 38.8 16.8 38.8 16.8 39 15.3 37.8 14.5 37.8 14.5 39 14.8 39.3 14.2 39.3 14.2 41.7 18.1 37.9 20L37.9 20z" class="r"/><path d="M13.8 17.1C18.6 17 16 13.7 22.4 7.6 17.2 10.6 11.8 10.5 13.8 17.1L13.8 17.1z" fill="url(#XMLID_22_)"/><path d="M13.8 17.1C14.6 15.9 17.5 11.2 22.4 7.6 17.2 10.6 11.8 10.5 13.8 17.1L13.8 17.1z" fill="url(#XMLID_23_)"/><path d="M16.2 15.2C15.3 16.1 14.3 15.9 14.2 14.7 14.1 13.1 15.8 12.9 16.6 13.1 16.9 13.9 16.6 14.6 16.2 15.2" fill="#000064"/><path d="M16.3 15C16 15.5 15.4 15.8 15 15.6 14.6 15.4 14.6 14.7 14.9 14.1 15.2 13.6 16.5 13.8 16.5 13.8 16.5 13.8 16.6 14.5 16.3 15z" fill="url(#eye_2_)"/><path d="M15.1 15C15.3 15.4 15.7 15.5 16 15.3 16.2 15.1 16.3 14.6 16 14.2 15.8 13.9 15.2 13.9 15 14.1 14.8 14.3 14.8 14.7 15.1 15L15.1 15z" fill="url(#pupil_1_)"/><path d="M14.1 18.5C14.1 18.5 14.1 18 13.9 17.5 12.1 18.1 11.6 16.8 11.6 16.8 11.6 16.8 10.5 19.6 11.7 20.9 11.9 19.6 14 18.6 14 18.6" fill="url(#XMLID_24_)"/><path d="M14 18.6L14.1 18.5C14.1 18.5 14.1 18 13.9 17.5 11.1 19 11.7 20.9 11.7 20.9 11.9 19.6 14 18.6 14 18.6L14 18.6z" class="p"/><path d="M11.7 18.7C11.7 18.7 11.7 17.8 12.1 17.7 12.1 17.8 12.3 17.9 12.5 17.9 12 18 11.7 18.7 11.7 18.7L11.7 18.7z" fill="url(#XMLID_25_)"/><path d="M12.1 10.5L12.1 10.5C11.9 10.8 11.8 11.1 11.7 11.4 11.1 12.5 11.5 14.2 11.6 15.4 11.7 15.9 11.8 16.3 12.1 16.6L12.4 16.7C12.4 16 12.6 15.3 12.6 14.6 12.6 13.8 12.3 12.9 12.5 12.1 12.6 11.3 13.1 10.7 13.3 9.9 13.5 9 13.5 8 13.6 7 13 8 12.6 9.1 12.1 10.5" style="fill-opacity:0.3;fill:#fff"/></svg>