<svg xmlns="http://www.w3.org/2000/svg" viewBox="0 0 300.00006 244.18703" height="244.187" width="300"><path d="M94.72 243.187c112.46 0 173.955-93.168 173.955-173.956 0-2.646-.054-5.28-.173-7.902 11.938-8.63 22.315-19.4 30.498-31.66-10.955 4.87-22.744 8.147-35.11 9.625 12.623-7.57 22.314-19.543 26.885-33.817-11.813 7.003-24.895 12.093-38.824 14.84C240.795 8.433 224.91 1 207.323 1c-33.763 0-61.144 27.38-61.144 61.132 0 4.798.537 9.465 1.586 13.94-50.816-2.556-95.874-26.885-126.026-63.88-5.25 9.036-8.278 19.532-8.278 30.73 0 21.213 10.793 39.94 27.207 50.894-10.03-.31-19.453-3.063-27.69-7.647-.01.256-.01.506-.01.78 0 29.61 21.076 54.332 49.052 59.934-5.138 1.4-10.544 2.152-16.123 2.152-3.934 0-7.766-.387-11.49-1.103 7.783 24.294 30.354 41.97 57.114 42.466-20.924 16.4-47.286 26.17-75.936 26.17-4.93 0-9.798-.28-14.584-.847 27.06 17.344 59.19 27.464 93.722 27.464" fill="#1da1f2"/></svg>