<svg xmlns="http://www.w3.org/2000/svg" version="1" width="1024" height="1024">
  <g fill-rule="evenodd">
    <path d="M179.93 32h664.14C925.768 32 992 98.23 992 179.93v664.14C992 925.768 925.767 992 844.07 992H179.93C98.23 992 32 925.767 32 844.07V179.93C32 98.23 98.23 32 179.93 32" fill="#4c75a3"/>
    <path d="M503.946 704.03h39.27s11.858-1.308 17.92-7.832c5.574-5.996 5.396-17.25 5.396-17.25s-.768-52.69 23.683-60.45c24.114-7.65 55.07 50.924 87.88 73.448 24.812 17.04 43.667 13.31 43.667 13.31l87.74-1.227s45.894-2.834 24.13-38.92c-1.78-2.947-12.677-26.693-65.237-75.48-55.02-51.063-47.644-42.8 18.626-131.128 40.36-53.79 56.49-86.628 51.45-100.692-4.8-13.4-34.49-9.86-34.49-9.86l-98.783.61s-7.33-.995-12.756 2.253c-5.31 3.176-8.717 10.598-8.717 10.598s-15.642 41.624-36.486 77.027c-43.99 74.693-61.58 78.647-68.77 74-16.73-10.81-12.55-43.42-12.55-66.594 0-72.39 10.98-102.57-21.38-110.384-10.737-2.593-18.647-4.307-46.11-4.587-35.25-.36-65.08.11-81.972 8.384-11.24 5.504-19.91 17.765-14.625 18.47 6.53.87 21.312 3.992 29.15 14.657 10.126 13.777 9.772 44.703 9.772 44.703s5.818 85.213-13.585 95.795c-13.314 7.26-31.58-7.56-70.8-75.326-20.09-34.712-35.264-73.086-35.264-73.086s-2.922-7.17-8.14-11.007c-6.33-4.65-15.175-6.123-15.175-6.123l-93.877.612s-14.09.392-19.265 6.52c-4.606 5.456-.368 16.725-.368 16.725s73.49 171.943 156.71 258.592c76.315 79.453 162.958 74.24 162.958 74.24" fill="#fff"/>
  </g>
</svg>
